PathFileType	4	(X/Y/Z)	OpenSim_Sub03_EMGBaseline_Gyro.trc
DataRate	CameraRate	NumFrames	NumMarkers	Units	OrigDataRate	OrigDataStartFrame	OrigNumFrames
100	100	34	8	m	100	1	7372
Frame#	Time	torso_imu_offset_imu	pelvis_imu_offset_imu	tibia_r_imu_offset_imu	femur_r_imu_offset_imu	tibia_l_imu_offset_imu	femur_l_imu_offset_imu	toes_r_imu_offset_imu	toes_l_imu_offset_imu
				X1	Y1	Z1	X2	Y2	Z2	X3	Y3	Z3	X4	Y4	Z4	X5	Y5	Z5	X6	Y6	Z6	X7	Y7	Z7	X8		Y8	Z8	

1	0	-0.00876716	0.00760875	-0.01610045	-0.01623596	-0.02133759	0.00762836	0.00938007	-0.00909890	-0.00703083	0.01311056	0.02013715	0.02900673	0.00357281	-0.00260734	0.01409239	-0.00438589	-0.01363473	-0.01755501	0.00432935	0.01071990	0.00063239	-0.00910793	0.02681406	-0.00144334
2	0.01000000	-0.00847627	0.00327510	-0.01676231	-0.01756132	-0.02502062	0.00604660	0.00536749	-0.01323580	-0.00855314	0.02181513	0.02924799	0.03458779	0.00236409	-0.00524649	0.01478315	-0.03014625	-0.00533278	-0.01313931	0.00612041	0.01089305	0.00219476	-0.00924315	0.02700259	-0.00094113
3	0.02000000	-0.00737608	-0.00012792	-0.01454343	-0.01704494	-0.02758317	0.00466224	0.00386036	-0.01119634	-0.01565073	0.01566410	0.03347072	0.03846253	-0.00380696	-0.00802019	0.01620732	-0.03877473	-0.01117033	-0.01271607	0.00427640	0.01274454	0.00166786	-0.00980322	0.02931212	-0.00082596
4	0.03000000	-0.01028688	-0.00604136	-0.01164874	-0.02159296	-0.02879213	0.00420747	0.00371347	-0.01696764	-0.01944286	0.01583963	0.02797866	0.04411751	-0.00288936	-0.00779386	0.01866635	-0.03446914	-0.01788287	-0.01290486	0.00349501	0.01297751	0.00040146	-0.00884907	0.02662702	-0.00170201
5	0.04000000	-0.01198009	-0.00847633	-0.01153899	-0.02139106	-0.03230975	0.00167133	0.00513112	-0.02117502	-0.01769379	0.01508881	0.01751200	0.04584823	0.00501153	-0.00726026	0.02462375	-0.02798041	-0.00694952	-0.01446096	0.00662911	0.00750867	0.00147128	-0.01029475	0.02731174	-0.00062112
6	0.05000000	-0.00686610	-0.01421516	-0.01225366	-0.01733978	-0.03067553	-0.00077375	0.01751818	-0.01260748	-0.01911861	0.00081689	0.01585543	0.04175464	0.00614602	-0.00583362	0.02251805	-0.02091513	-0.00106356	-0.01926349	0.00607745	0.01029465	0.00093650	-0.01147754	0.03319587	-0.00331881
7	0.06000000	-0.00716742	-0.01819373	-0.01134307	-0.02093270	-0.02520142	0.00020623	0.01448228	-0.01754411	-0.02412864	-0.00338733	0.02473252	0.04253063	0.00920567	-0.00996003	0.02866511	-0.02715155	-0.00761724	-0.02657940	0.00399008	0.01437405	0.00210404	-0.01036585	0.03364152	-0.00389161
8	0.07000000	-0.00833301	-0.01545317	-0.01005535	-0.02107750	-0.02738813	-0.00084147	0.00722670	-0.02183483	-0.02670337	-0.00458584	0.02186199	0.04828631	0.00831156	-0.01205163	0.03344348	-0.02557285	-0.01255224	-0.02898994	0.00409044	0.01370024	0.00185037	-0.01399719	0.03421641	-0.00192412
9	0.08000000	-0.00599572	-0.01662635	-0.00805801	-0.02103780	-0.03033107	-0.00134567	0.01045966	-0.02156156	-0.02546943	-0.00362497	0.02524099	0.05481957	0.00183649	-0.00878222	0.03182277	-0.02227068	-0.01675882	-0.03137519	0.00574979	0.01639909	0.00133358	-0.01270401	0.03545225	-0.00312214
10	0.09000000	-0.00720431	-0.01500815	-0.00697877	-0.01918682	-0.03598700	0.00101078	0.00668236	-0.02503461	-0.03110659	0.00083271	0.02569458	0.06109642	-0.00546597	-0.01630784	0.04458186	-0.03558918	-0.02365406	-0.03518097	0.00797305	0.01507616	0.00278889	-0.01217135	0.03564128	-0.00489887
11	0.10000000	-0.00715954	-0.01109802	-0.00383532	-0.02065435	-0.03866795	0.00220147	0.00945473	-0.02498000	-0.03445357	-0.01602204	0.02369981	0.06648170	-0.01634444	-0.01628011	0.04582824	-0.05830559	-0.01947326	-0.03552197	0.00709719	0.01405960	-0.00048462	-0.01755675	0.03658913	-0.00230898
12	0.11000000	-0.00343314	-0.00867859	-0.00370074	-0.02025421	-0.04440010	0.00285353	0.01994588	-0.02894208	-0.03778870	-0.02998821	0.02674914	0.06837530	-0.01855472	-0.01561120	0.04344858	-0.05427847	0.00019672	-0.03591176	0.01105821	0.01441335	-0.00275128	-0.01177886	0.03686860	-0.00017923
13	0.12000000	-0.00592935	-0.00811980	-0.00461452	-0.01436876	-0.04802365	0.00616266	0.01995400	-0.03195410	-0.04312557	-0.02186004	0.03646390	0.07415726	-0.01748060	-0.02211511	0.05697833	-0.04387099	0.01565129	-0.04101305	0.00869519	0.01579811	0.00255859	-0.01233966	0.03742407	-0.00525755
14	0.13000000	-0.00149711	-0.00812008	-0.00160283	-0.01711999	-0.04557619	0.00852521	0.01894095	-0.02947113	-0.04519763	-0.00770651	0.04461867	0.07859952	-0.01100039	-0.02181596	0.06557424	-0.04486658	0.01586812	-0.05021644	0.00378077	0.01601475	0.00238380	-0.01890749	0.03966824	-0.00366617
15	0.14000000	-0.00063089	-0.00808574	-0.00290402	-0.01201973	-0.05126582	0.00127600	0.02533197	-0.03460831	-0.05137398	0.00297604	0.04049582	0.07589454	-0.00687840	-0.01827314	0.06866837	-0.03462009	0.01077438	-0.05814264	0.00670087	0.01253899	0.00240180	-0.01442636	0.03602639	0.00050824
16	0.15000000	-0.01134358	-0.01094349	-0.00410944	-0.00991700	-0.05449462	0.00062286	0.01354803	-0.04463207	-0.04916055	-0.00172704	0.03839831	0.08075761	-0.01976403	-0.01825883	0.07464315	-0.02400201	0.00004656	-0.06557109	0.00424095	0.00757570	-0.00099141	-0.01490842	0.03288440	-0.00169826
17	0.16000000	-0.01781040	-0.02367274	-0.00291430	-0.01138089	-0.05772087	-0.00257104	0.00157828	-0.03909438	-0.05368957	-0.00792388	0.04296175	0.08536463	-0.03210815	-0.01500728	0.07677694	-0.02623427	-0.01200679	-0.07587361	0.00603407	0.00244620	-0.00654001	-0.01764646	0.02897990	0.00380245
18	0.17000000	-0.02295837	-0.03139543	-0.00070795	-0.00969469	-0.06580265	-0.00547480	0.01502635	-0.03634149	-0.06325176	-0.00992351	0.04313865	0.09143735	-0.03986019	-0.01793382	0.08082454	-0.03349402	-0.01250919	-0.08241443	0.00753126	0.00137848	-0.00731484	-0.02062517	0.02511132	0.00433939
19	0.18000000	-0.02445026	-0.03697167	0.00535855	-0.00691389	-0.07617460	-0.00351942	0.02155058	-0.04148847	-0.07101986	-0.02188421	0.04653336	0.09607528	-0.03848692	-0.01824870	0.08667043	-0.02898816	0.00353405	-0.09046608	0.00865831	0.00461508	-0.00765689	-0.02035796	0.02350217	0.00451143
20	0.19000000	-0.02792158	-0.04216345	0.00779062	-0.01179808	-0.08326365	-0.00580346	0.02101868	-0.04545552	-0.07456597	-0.02653853	0.05703387	0.09851534	-0.02456199	-0.01089153	0.09236320	-0.02201677	0.01316519	-0.09577084	0.00634622	0.00619564	-0.00480849	-0.01759218	0.01787108	0.00442787
21	0.20000000	-0.03262831	-0.04598115	0.00636621	-0.00955010	-0.09363983	-0.01158265	0.02740544	-0.04181703	-0.07775381	-0.00818769	0.06116838	0.10484716	-0.00774088	-0.01358596	0.09891268	-0.02250565	0.01127933	-0.10161919	0.00768907	0.00659499	-0.00257009	-0.01882588	0.01997700	0.00626796
22	0.21000000	-0.03262839	-0.05348288	0.00176756	-0.00060253	-0.11091481	-0.01082561	0.01309467	-0.04471749	-0.08576049	0.00376887	0.05707198	0.10997648	0.00354458	-0.01838732	0.09877917	-0.00059641	0.00789440	-0.10308086	0.00810014	0.00541336	-0.00664699	-0.01846838	0.02284982	0.00630204
23	0.22000000	-0.03677710	-0.05164732	-0.00214103	0.00582849	-0.11930739	-0.01017956	0.01676015	-0.04784815	-0.09221253	0.00530539	0.06499397	0.11365263	0.01198981	-0.01106183	0.09530910	0.02018217	0.00433712	-0.10624430	0.00741325	0.00543781	-0.00838318	-0.01614261	0.01684420	0.00852338
24	0.23000000	-0.04414970	-0.05766835	-0.00109943	0.01498404	-0.13061638	-0.00259794	0.03454218	-0.04526796	-0.09513564	0.01702514	0.06246274	0.11259870	0.00304918	-0.00053704	0.09560892	0.01992194	0.00375336	-0.10850254	0.00739330	0.00376259	-0.00815930	-0.01651472	0.01493194	0.01040162
25	0.24000000	-0.05295190	-0.06423229	-0.00422324	0.01525167	-0.14064492	0.00019396	0.03420881	-0.04839944	-0.10026613	0.03311068	0.05406758	0.11160828	-0.00668883	0.00529261	0.07842672	0.01853705	0.00943758	-0.10582905	0.01045012	0.00178880	-0.00950552	-0.01470847	0.01218243	0.00885985
26	0.25000000	-0.05983970	-0.06801558	-0.01136910	0.02201740	-0.14698791	0.00247167	0.03769813	-0.04539845	-0.10287398	0.03613882	0.05168242	0.11132912	-0.01087477	0.01014344	0.06770736	0.02412532	0.01602994	-0.09818218	0.00800881	0.00258001	-0.00960279	-0.01248774	0.00801678	0.00843439
27	0.26000000	-0.06043792	-0.07088126	-0.00896185	0.02774573	-0.14373746	0.00058165	0.04489952	-0.04271242	-0.10261004	0.02918666	0.05343589	0.11209346	-0.01965289	0.01079950	0.06966185	0.01957563	0.00773639	-0.09390757	0.00826399	0.00185501	-0.01084244	-0.01157332	0.00475882	0.00818139
28	0.27000000	-0.06210333	-0.06957161	-0.01142093	0.02806439	-0.13973508	-0.00148663	0.04573394	-0.03765924	-0.10006672	0.00684177	0.05078879	0.10562295	-0.01376426	0.00956959	0.06141698	0.01114197	0.00638511	-0.08708480	0.01181925	0.00121742	-0.01155395	-0.00829745	0.00671318	0.00622614
29	0.28000000	-0.06657244	-0.06420481	-0.02071923	0.02630075	-0.13563493	-0.00109577	0.05039770	-0.02599873	-0.09832730	-0.00574266	0.03979459	0.09637509	-0.00577442	0.00770116	0.05405481	0.00884129	0.01088505	-0.07331610	0.00764885	0.00021897	-0.00797469	-0.00589026	0.00807896	0.00245655
30	0.29000000	-0.06984763	-0.05992464	-0.02094568	0.02398624	-0.12521413	-0.00127238	0.05778700	-0.03355535	-0.09401598	-0.01291658	0.04585922	0.09043613	0.00010450	0.00203109	0.05480535	-0.00271037	0.00304187	-0.06065604	0.00602296	-0.00027800	-0.00788201	-0.00489590	0.00941890	0.00290116
31	0.30000000	-0.07444441	-0.04866977	-0.03030649	0.01949352	-0.11710718	0.00128302	0.04246232	-0.03098881	-0.09835943	-0.02203575	0.05238153	0.09047594	-0.00861394	0.00088830	0.04854021	0.00378420	0.00331970	-0.04907840	0.00447183	0.00140238	-0.00420396	-0.00213453	0.01137954	0.00137538
32	0.31000000	-0.07311744	-0.04423404	-0.03076593	0.01468424	-0.10708913	-0.00073350	0.03164288	-0.03382513	-0.09990056	0.00306610	0.06769099	0.09573016	-0.00584165	0.00275408	0.04144502	0.01484390	0.00654678	-0.04404666	0.00207036	0.00253669	-0.00440559	-0.00250759	0.00969418	0.00198721
33	0.32000000	-0.06955427	-0.04095898	-0.03226779	0.01248074	-0.10169795	-0.00339999	0.04520119	-0.03791897	-0.09992197	0.02007446	0.07489178	0.10628787	-0.00824224	-0.00125314	0.04526850	0.01445931	0.00825409	-0.03694141	0.00332491	-0.00045116	-0.00679771	-0.00179996	0.00888281	0.00118053
34	0.33000000	-0.06426750	-0.03467003	-0.03460720	0.00520792	-0.10293848	-0.00682852	0.05130824	-0.03851423	-0.10459372	0.00969295	0.05604808	0.11057254	-0.01090632	-0.00414013	0.04777126	0.00042573	0.00753258	-0.03200813	0.00960338	0.00020404	-0.01103960	-0.00340509	0.00989297	0.00278040
